# xmcd
# 
# Track frame offsets:
#   150
#   15115
#   32522
#   47727
#   65277
#   79095
#   96275
#   111393
#   130130
#   143925
#   162373
#   185893
#   201693
#   218888
#   235533
#   251836
#   269028
#   286331
# 
# Disc length: 4089 seconds
# 
# Revision: 27
# Processed by: cddbd v1.5.2PL0 Copyright (c) Steve Scherf et al.
# Submitted via: Synapstar 1.0 
# 
DISCID=0f0ff712
DTITLE=INXS - The Greatest Hits
DYEAR=1994
DGENRE=Blues
TTITLE0=Mystify
TTITLE1=Suicide Blonde
TTITLE2=Taste It
TTITLE3=The Strangest Party (These Are The Times)
TTITLE4=Need You Tonight
TTITLE5=Original Sin
TTITLE6=Heaven Sent
TTITLE7=Disappear
TTITLE8=Never Tear Us Apart
TTITLE9=The Gift
TTITLE10=Devil Inside
TTITLE11=Beautiful Girl
TTITLE12=Deliver Me
TTITLE13=New Sensation
TTITLE14=What You Need
TTITLE15=Listen Like Thieves
TTITLE16=Bitter Tears
TTITLE17=Baby Don't Cry
EXTD=YEAR: 1994 MediaType: Audio CD Producer: Unknown
EXTT0=
EXTT1=
EXTT2=
EXTT3=
EXTT4=
EXTT5=
EXTT6=
EXTT7=
EXTT8=
EXTT9=
EXTT10=
EXTT11=
EXTT12=
EXTT13=
EXTT14=
EXTT15=
EXTT16=
EXTT17=
PLAYORDER=
